<?xml version="1.0" standalone="no"?>
<!DOCTYPE svg PUBLIC "-//W3C//DTD SVG 20010904//EN"
 "http://www.w3.org/TR/2001/REC-SVG-20010904/DTD/svg10.dtd">
<svg version="1.0" xmlns="http://www.w3.org/2000/svg"
 width="500.000000pt" height="500.000000pt" viewBox="0 0 500.000000 500.000000"
 preserveAspectRatio="xMidYMid meet">

<g transform="translate(0.000000,500.000000) scale(0.100000,-0.100000)"
fill="#000000" stroke="none">
<path d="M0 4876 c0 -88 4 -134 15 -160 9 -20 13 -41 10 -47 -4 -5 0 -16 9
-24 9 -10 13 -26 10 -47 -3 -18 -6 -40 -5 -48 0 -38 -11 -70 -22 -64 -9 5 -9
4 0 -6 9 -10 8 -18 -4 -36 -8 -13 -13 -24 -10 -24 16 0 107 161 107 189 0 6 4
11 10 11 17 0 42 109 38 167 -2 32 1 58 7 59 6 2 25 -24 44 -57 19 -33 57 -87
84 -121 37 -46 46 -63 36 -69 -11 -7 -11 -11 3 -21 21 -16 32 -128 13 -128 -7
0 -12 12 -13 28 0 49 -5 58 -11 22 -5 -25 -3 -40 8 -53 21 -25 23 -112 5 -165
-19 -58 -18 -68 6 -47 11 10 23 16 26 13 3 -3 5 -33 6 -66 1 -45 -5 -69 -22
-101 -29 -51 -20 -65 10 -17 12 20 25 36 30 36 12 0 33 -136 24 -162 -4 -13
-5 -23 -3 -24 2 0 -1 -7 -8 -15 -15 -19 -40 -93 -49 -146 -10 -62 11 -54 26
10 7 28 16 57 20 62 4 6 13 28 20 50 l13 40 13 -55 c18 -78 17 -117 -7 -179
-27 -72 -23 -106 13 -106 14 0 30 -4 35 -9 4 -5 -1 -7 -14 -3 -35 8 -29 -25
11 -67 40 -43 63 -46 72 -8 3 15 21 74 39 132 53 166 66 373 32 480 -25 79
-49 130 -59 130 -5 0 -7 4 -4 9 3 5 -6 16 -19 25 -14 10 -33 33 -42 51 -9 19
-20 35 -25 35 -4 0 -8 7 -8 16 0 9 -14 41 -31 70 -17 30 -29 59 -27 65 2 6 39
-17 82 -52 81 -66 296 -219 307 -219 15 0 125 -72 160 -105 21 -19 41 -35 45
-35 27 0 97 -47 111 -73 20 -40 20 -110 -2 -167 -9 -25 -21 -63 -26 -85 -15
-59 5 -149 26 -115 3 5 8 37 11 71 2 34 9 80 15 103 6 22 16 66 23 96 l13 55
21 -35 c12 -19 22 -45 22 -58 0 -13 4 -21 9 -18 14 9 31 -69 25 -115 -3 -24
-6 -51 -6 -59 -1 -8 -4 -19 -8 -25 -5 -5 -11 -27 -15 -49 -6 -31 -5 -38 6 -34
8 3 16 15 17 29 2 13 8 28 13 34 5 5 9 16 9 25 0 8 8 24 17 35 15 19 15 19 9
-13 -4 -22 0 -41 10 -58 22 -33 28 -188 9 -227 -7 -15 -19 -52 -26 -82 -10
-44 -9 -60 2 -86 l13 -33 12 30 c7 16 10 32 7 37 -2 4 5 7 16 7 22 0 28 -14
11 -25 -6 -4 -1 -14 12 -25 18 -14 20 -20 10 -33 -15 -17 -6 -47 14 -47 8 0
22 -19 31 -42 l17 -42 8 32 c5 19 5 47 0 66 -6 22 -6 42 2 61 11 27 13 28 21
10 9 -23 25 40 51 210 21 140 10 211 -50 325 -7 14 -11 31 -9 38 4 11 -8 17
-29 13 -16 -2 -7 19 11 29 14 7 21 6 24 -3 3 -7 6 -8 6 -1 2 20 -40 64 -75 79
-19 8 -37 22 -41 32 -3 10 -19 30 -34 44 -26 23 -27 27 -13 41 15 15 15 17 -4
27 -12 6 -56 14 -99 17 -51 4 -82 12 -90 21 -6 8 -16 12 -21 9 -9 -5 -48 13
-186 86 -87 47 -176 106 -304 201 -90 68 -121 97 -118 110 2 9 0 15 -4 12 -5
-3 -11 -1 -15 5 -8 13 27 13 62 -1 15 -6 48 -13 73 -14 25 -1 60 -9 77 -16 46
-20 171 -111 178 -130 3 -8 24 -24 48 -36 23 -11 65 -31 92 -45 76 -38 188
-61 300 -62 86 -1 106 2 143 22 23 12 42 27 42 32 0 6 7 10 15 10 23 0 18 20
-12 51 -16 15 -36 39 -46 53 -10 14 -24 26 -32 26 -8 0 -15 5 -15 10 0 6 -11
10 -25 10 -14 0 -25 5 -25 11 0 5 4 8 9 4 5 -3 12 -1 15 3 3 5 -4 9 -15 8 -11
0 -23 -6 -27 -13 -6 -9 -20 -9 -62 1 l-55 12 42 7 c23 4 48 5 55 2 8 -3 26 -1
41 4 14 6 29 7 31 2 7 -11 86 -13 86 -2 0 5 -8 12 -17 15 -33 13 -172 17 -211
7 -56 -16 -136 -16 -217 -1 -38 6 -87 14 -107 17 -48 6 -48 18 0 31 52 14 154
50 174 62 10 6 37 10 60 10 24 0 50 4 58 10 54 34 -159 12 -230 -24 -102 -52
-183 -71 -255 -60 -41 6 -44 8 -28 20 10 7 26 14 36 14 9 0 17 5 17 10 0 6 9
10 19 10 11 0 21 5 23 11 2 7 25 12 50 13 26 1 45 3 42 5 -2 2 4 10 14 17 9 7
14 16 10 20 -8 7 -65 -10 -213 -64 -84 -30 -195 -43 -195 -22 0 6 -4 8 -10 5
-5 -3 -18 -1 -29 4 -14 8 -21 8 -24 -2 -6 -16 -108 91 -156 164 -20 31 -57 99
-81 153 -37 81 -47 96 -67 96 -24 0 -31 -14 -13 -25 15 -9 12 -35 -4 -35 -8 0
-17 14 -21 30 -6 27 -10 30 -46 30 l-39 0 0 -124z m122 29 c3 -14 2 -25 -2
-25 -4 0 -10 11 -12 25 -3 14 -2 25 2 25 4 0 10 -11 12 -25z m-61 -18 c-10 -9
-11 -8 -5 6 3 10 9 15 12 12 3 -3 0 -11 -7 -18z m7 -54 c18 12 31 -11 35 -65
3 -37 1 -58 -6 -61 -8 -2 -7 -13 2 -35 14 -33 10 -49 -8 -38 -8 5 -28 58 -36
96 0 3 -6 15 -13 28 -11 19 -10 23 3 28 8 3 22 4 30 0 8 -3 15 -1 15 4 0 6 -7
10 -15 10 -9 0 -18 7 -21 15 -4 8 -10 12 -15 9 -5 -3 -9 2 -9 12 0 13 3 14 15
4 8 -6 18 -9 23 -7z m322 -293 c0 -5 -2 -10 -4 -10 -3 0 -8 5 -11 10 -3 6 -1
10 4 10 6 0 11 -4 11 -10z m489 -53 c52 -24 175 -140 169 -159 -7 -20 -44 -21
-63 -1 -12 11 -20 14 -22 6 -3 -7 -13 -3 -27 10 -13 12 -49 40 -80 62 -74 52
-126 96 -126 105 0 14 105 -3 149 -23z m201 -38 c19 -11 45 -19 57 -19 14 0
23 -6 23 -15 0 -9 8 -19 18 -22 26 -10 51 -45 52 -70 0 -13 -3 -23 -7 -24 -5
0 -27 -2 -51 -5 -43 -5 -43 -5 -132 86 -50 51 -90 94 -90 97 0 10 97 -11 130
-28z m-660 -17 c0 -10 4 -22 9 -27 16 -18 24 -58 10 -53 -17 6 -49 67 -42 84
7 20 23 17 23 -4z m824 -32 c47 0 117 -40 130 -74 7 -20 7 -20 -15 0 -16 13
-23 15 -26 7 -10 -27 -50 -12 -96 36 -25 26 -43 51 -40 55 4 4 11 0 15 -9 5
-8 19 -15 32 -15z m-770 -175 c13 -15 22 -35 18 -43 -4 -12 -7 -11 -13 6 -5
13 -14 20 -23 16 -14 -5 -36 22 -36 44 0 19 29 6 54 -23z m29 -134 c19 -18 27
-34 27 -59 0 -18 7 -40 15 -48 20 -21 19 -42 -3 -40 -43 3 -93 80 -107 166
l-7 45 23 -20 c13 -11 36 -31 52 -44z m707 -46 c7 -8 16 -12 21 -9 5 3 9 -1 9
-9 0 -25 -27 -27 -49 -3 -12 12 -21 25 -21 29 0 13 27 7 40 -8z m114 -77 c11
2 16 0 12 -7 -9 -15 -56 -10 -56 6 0 7 -5 13 -11 13 -5 0 -7 -4 -4 -10 9 -15
-11 -12 -23 3 -9 10 -7 19 5 36 l16 24 21 -35 c14 -23 27 -32 40 -30z m-796
-51 c-16 -11 -16 -13 2 -42 15 -25 16 -33 6 -48 -16 -21 -27 -10 -45 42 -16
50 -14 56 22 58 27 1 29 0 15 -10z m781 -21 c10 -12 9 -14 -5 -12 -10 2 -20 8
-22 14 -5 17 13 15 27 -2z m41 -36 c0 -5 -5 -10 -11 -10 -5 0 -7 5 -4 10 3 6
8 10 11 10 2 0 4 -4 4 -10z m30 -35 c0 -8 -4 -15 -9 -15 -5 0 -11 7 -15 15 -3
9 0 15 9 15 8 0 15 -7 15 -15z m30 -55 c0 -5 -2 -10 -4 -10 -3 0 -8 5 -11 10
-3 6 -1 10 4 10 6 0 11 -4 11 -10z m-54 -456 c-3 -8 -11 -14 -17 -14 -10 0 -9
15 6 90 6 28 9 25 12 -19 3 -24 2 -50 -1 -57z m84 11 c7 -9 8 -15 2 -15 -5 0
-12 7 -16 15 -3 8 -4 15 -2 15 2 0 9 -7 16 -15z m-8 -49 c7 4 8 2 4 -5 -10
-15 -26 -4 -25 17 1 15 2 15 6 -1 2 -9 9 -14 15 -11z"/>
<path d="M302 4978 c10 -18 13 -20 16 -7 3 15 7 15 50 1 26 -9 49 -18 52 -21
3 -4 18 -12 34 -19 27 -12 28 -12 15 4 -12 15 -12 16 6 11 11 -4 45 -11 75
-17 68 -13 140 -41 140 -56 0 -6 6 -11 14 -11 11 0 12 6 5 25 l-10 25 73 -7
c40 -4 77 -12 82 -17 6 -5 20 -9 33 -9 13 0 23 -6 23 -13 0 -17 47 -43 57 -33
5 4 -5 19 -22 32 l-30 24 25 0 c14 -1 42 -7 62 -14 21 -7 40 -11 43 -8 9 10
-30 29 -75 38 -25 4 -48 9 -52 10 -5 1 -15 2 -23 3 -8 0 -24 11 -36 24 -17 17
-21 18 -16 5 5 -13 1 -18 -13 -18 -11 0 -20 3 -20 8 0 4 -30 7 -67 6 -38 -1
-88 3 -113 9 l-45 10 40 11 c26 8 36 14 28 19 -7 5 -30 3 -50 -2 -48 -14 -150
-14 -158 -1 -3 6 -40 10 -81 10 -74 0 -75 0 -62 -22z"/>
<path d="M883 4953 c9 -2 23 -2 30 0 6 3 -1 5 -18 5 -16 0 -22 -2 -12 -5z"/>
<path d="M330 4933 c0 -13 29 -38 35 -31 3 3 -4 13 -15 23 -11 10 -20 13 -20
8z"/>
<path d="M495 4890 c3 -5 8 -10 11 -10 2 0 4 5 4 10 0 6 -5 10 -11 10 -5 0 -7
-4 -4 -10z"/>
<path d="M730 4856 c0 -2 7 -9 15 -16 9 -7 15 -8 15 -2 0 5 -7 12 -15 16 -8 3
-15 4 -15 2z"/>
<path d="M770 4838 c0 -19 21 -38 42 -38 27 0 22 13 -12 33 -23 14 -30 15 -30
5z"/>
<path d="M592 4803 c2 -10 14 -20 28 -22 25 -3 25 -3 6 18 -23 26 -39 27 -34
4z"/>
<path d="M3358 4673 c-10 -2 -18 -10 -18 -17 0 -35 104 -264 155 -342 63 -96
143 -186 184 -208 14 -7 46 -25 71 -38 25 -14 51 -23 58 -21 6 3 12 -1 12 -7
0 -7 7 -10 16 -6 19 7 94 -11 94 -23 0 -5 8 -7 18 -4 10 2 24 -3 31 -11 8 -9
18 -16 23 -16 16 0 108 -42 108 -49 0 -4 -73 -8 -162 -9 -90 -1 -197 -6 -238
-12 -145 -18 -221 -30 -228 -34 -4 -2 -28 -1 -54 4 -27 4 -48 4 -48 0 0 -3
-25 -11 -55 -17 -44 -10 -60 -9 -82 2 -50 25 -82 69 -114 156 -22 61 -40 93
-66 117 -57 52 -62 24 -10 -52 25 -36 51 -83 58 -104 6 -20 15 -41 18 -47 4
-5 13 -23 19 -39 12 -28 12 -28 -15 -21 -15 3 -35 13 -44 21 -9 8 -18 11 -22
8 -18 -19 -147 130 -147 170 0 9 -5 16 -11 16 -6 0 -9 6 -6 14 3 8 0 20 -8 26
-21 18 -29 -7 -11 -35 9 -13 18 -43 21 -67 l6 -43 -16 28 c-9 15 -24 27 -34
27 -21 0 -107 78 -132 120 -9 14 -24 50 -34 80 -24 72 -54 118 -82 123 -27 5
-29 -9 -8 -39 15 -23 11 -34 -13 -34 -9 0 -12 6 -8 17 6 16 -8 33 -29 33 -5 0
-3 -5 5 -10 12 -8 11 -10 -7 -10 -16 0 -23 6 -23 20 0 19 -44 40 -56 27 -3 -3
-21 3 -40 14 -19 10 -34 16 -34 13 0 -20 34 -63 63 -78 26 -15 33 -24 29 -42
-3 -15 -9 -21 -19 -17 -12 5 -10 -3 6 -35 11 -22 25 -43 31 -47 5 -3 10 -13
10 -20 0 -25 108 -190 149 -227 21 -20 67 -51 102 -69 35 -18 67 -38 71 -43 9
-14 31 -15 40 -1 5 6 8 4 8 -5 0 -9 -5 -21 -12 -28 -21 -21 39 -35 89 -21 33
9 46 9 57 0 8 -6 31 -13 52 -14 31 -2 38 -6 36 -20 -2 -10 3 -17 13 -17 21 0
118 55 140 80 10 11 22 17 27 14 6 -4 20 -2 31 4 36 16 102 32 136 32 18 0 41
5 51 10 52 28 497 54 550 33 l25 -10 -32 -17 c-18 -9 -38 -16 -46 -16 -8 0
-22 -9 -32 -20 -28 -31 -102 -60 -151 -60 -32 0 -44 -4 -44 -14 0 -11 9 -13
35 -9 87 14 -5 -63 -103 -86 -46 -12 -115 -10 -194 5 -38 8 -37 39 1 52 16 6
32 8 35 5 3 -4 6 -1 6 6 0 7 3 10 8 8 14 -8 197 8 195 17 -4 13 -118 18 -168
7 -127 -28 -157 -37 -224 -69 -40 -20 -75 -42 -78 -49 -3 -7 -11 -13 -18 -13
-7 0 -38 -23 -69 -51 -40 -36 -59 -63 -68 -92 -6 -23 -11 -46 -9 -51 1 -5 -4
-13 -11 -17 -28 -17 24 -29 142 -33 30 -1 60 -4 65 -8 17 -10 39 8 32 26 -4
11 7 23 39 42 25 15 48 23 52 19 4 -3 -1 -11 -11 -16 -9 -6 -15 -14 -12 -20 4
-5 -1 -9 -9 -9 -9 0 -16 -4 -16 -10 0 -5 -6 -10 -13 -10 -8 0 -20 -11 -27 -25
-7 -13 -16 -22 -20 -20 -4 2 -24 -8 -46 -23 -29 -20 -35 -27 -22 -30 37 -7
123 54 208 148 39 44 76 80 82 80 5 0 29 14 53 30 24 17 48 30 53 30 5 0 26
11 47 25 38 26 57 27 36 1 -17 -21 -111 -178 -111 -186 0 -4 -21 -26 -46 -49
-36 -32 -42 -41 -26 -41 20 0 152 132 152 152 0 19 47 104 87 156 22 29 56 61
76 72 46 25 46 25 40 0 -3 -11 -9 -20 -14 -20 -5 0 -9 -9 -9 -19 0 -11 -4 -23
-10 -26 -5 -3 -10 -13 -10 -21 0 -8 -9 -25 -21 -37 -29 -30 -51 -75 -40 -81
12 -8 34 19 88 114 27 47 60 101 73 121 29 43 106 99 138 99 13 0 22 6 22 15
0 18 13 18 100 4 136 -21 273 -79 412 -172 42 -28 76 -52 75 -53 -1 -1 -48 -4
-104 -8 -69 -4 -111 -2 -128 6 -28 12 -48 2 -25 -12 13 -8 12 -10 -2 -11 -27
-2 -32 -4 -45 -12 -7 -4 -25 -10 -40 -12 -16 -2 -39 -8 -53 -14 -22 -8 -22
-10 -5 -11 18 -1 17 -2 -5 -15 -14 -8 -30 -14 -37 -15 -7 0 -29 -11 -49 -25
-20 -14 -47 -25 -58 -25 -12 0 -27 -5 -34 -12 -8 -8 -15 -8 -27 2 -15 12 -16
11 -13 -6 1 -10 10 -22 18 -25 17 -7 -93 -81 -127 -85 -31 -3 -44 -13 -37 -27
4 -7 -1 -5 -10 4 -10 9 -27 14 -42 11 -35 -6 -29 -22 9 -22 l32 -1 -25 -21
c-14 -11 -37 -25 -52 -30 -16 -6 -28 -14 -28 -19 0 -20 232 93 270 132 28 29
140 93 140 80 0 -5 -7 -14 -14 -21 -8 -6 -24 -26 -34 -45 -20 -32 -20 -33 -1
-28 11 3 18 10 17 15 -5 14 100 126 132 143 14 7 35 16 48 20 22 6 21 3 -11
-42 -50 -70 -61 -93 -45 -93 8 0 22 15 32 33 41 71 123 132 168 125 19 -3 18
-6 -11 -42 -37 -47 -97 -164 -88 -173 6 -6 57 98 57 115 0 5 16 27 35 49 32
37 42 42 104 53 53 9 75 9 92 0 12 -7 39 -10 60 -7 46 6 87 -12 159 -73 43
-36 50 -39 50 -21 0 11 -18 37 -40 57 -22 20 -37 40 -35 44 9 14 -7 68 -25 87
-25 28 -35 92 -15 99 8 3 15 14 15 23 0 13 -2 13 -9 2 -5 -8 -11 -9 -15 -3 -3
6 -2 13 4 17 5 3 10 11 10 17 0 6 -7 5 -16 -3 -15 -12 -16 -11 -10 9 4 12 3
22 -2 22 -6 0 -17 18 -26 39 -11 28 -21 39 -34 38 -16 -1 -18 -6 -12 -29 6
-20 4 -30 -8 -40 -10 -8 -13 -8 -9 -1 4 6 1 13 -5 16 -10 3 -10 8 2 22 14 17
13 17 -10 11 -16 -5 -20 -4 -12 2 10 7 10 11 -2 21 -8 7 -19 10 -24 7 -6 -3
-15 1 -22 9 -11 13 -10 14 4 9 11 -4 15 -2 12 7 -2 8 -7 26 -10 42 -9 39 -43
35 -37 -5 2 -15 -27 4 -47 32 -26 34 -39 90 -36 147 2 23 -1 45 -7 48 -5 4 -9
-1 -9 -9 0 -26 -17 -18 -25 12 -9 38 -93 214 -112 235 -9 9 -22 17 -30 17 -9
0 0 -26 28 -80 54 -107 63 -138 43 -158 -14 -13 -15 -13 -12 0 3 14 -92 118
-108 118 -3 0 -3 -12 1 -27 6 -26 106 -133 123 -133 18 0 51 -48 62 -90 19
-72 19 -89 1 -82 -25 8 -57 32 -46 33 6 1 0 4 -13 7 -13 4 -22 10 -20 14 2 4
-7 15 -19 23 -13 9 -23 21 -23 26 0 6 -9 22 -20 36 -15 20 -17 29 -9 39 9 11
8 14 -4 14 -9 0 -18 8 -20 18 -3 9 -5 1 -5 -18 -1 -19 6 -62 14 -95 8 -33 17
-72 19 -88 6 -39 43 -118 70 -147 19 -22 40 -60 32 -60 -2 0 -39 13 -83 29
-43 16 -103 32 -132 36 -44 6 -55 11 -62 31 -5 13 -12 24 -15 24 -4 0 -3 -4 0
-10 3 -5 2 -10 -2 -10 -15 0 -103 92 -97 101 9 15 20 10 34 -15 7 -14 19 -27
26 -30 32 -12 -25 55 -60 71 -41 18 -75 63 -97 126 -15 44 -26 47 -31 10 l-3
-28 -36 36 c-20 20 -43 52 -50 72 -14 41 -26 47 -31 17 -3 -18 -8 -16 -52 19
-51 41 -85 91 -86 127 0 12 -7 27 -15 34 -8 7 -12 16 -9 21 3 5 0 9 -6 9 -6 0
-9 4 -5 10 3 5 1 17 -4 27 -5 10 -12 26 -15 36 -3 9 -12 17 -21 17 -14 0 -13
-4 1 -37 27 -61 55 -144 52 -154 -2 -4 -29 14 -60 41 -47 42 -60 61 -78 115
-30 90 -65 120 -89 78 -5 -10 -13 -14 -18 -9 -4 5 -2 11 5 13 43 16 -52 60
-100 46z m150 -118 c-3 -3 -9 2 -12 12 -6 14 -5 15 5 6 7 -7 10 -15 7 -18z
m166 -206 c6 -6 2 -15 -10 -24 -16 -13 -17 -16 -4 -25 8 -5 28 -10 43 -10 15
0 42 -7 60 -16 32 -16 87 -63 87 -74 0 -3 -28 -4 -62 -3 -52 2 -66 7 -83 27
-12 14 -33 28 -48 31 -25 7 -39 25 -19 25 5 0 7 14 4 30 -3 19 -10 30 -21 30
-9 0 -27 10 -41 21 -14 11 -19 18 -11 14 10 -6 11 -2 6 15 -7 23 -7 23 41 -5
27 -15 53 -32 58 -36z m-1025 -110 c12 -23 20 -43 18 -45 -8 -8 -58 66 -52 76
9 15 11 13 34 -31z m-109 17 c0 -3 -4 -8 -10 -11 -5 -3 -10 -1 -10 4 0 6 5 11
10 11 6 0 10 -2 10 -4z m1374 -117 c20 -9 22 -14 12 -24 -13 -14 -66 -9 -66 6
0 5 6 9 13 9 8 0 7 4 -3 10 -13 8 -13 10 2 10 9 0 28 -5 42 -11z m-66 -24 c-3
-3 -9 2 -12 12 -6 14 -5 15 5 6 7 -7 10 -15 7 -18z m190 -95 c33 -20 40 -34
22 -45 -5 -3 -10 -2 -10 2 0 5 -16 17 -35 27 -35 19 -46 36 -22 36 6 0 27 -9
45 -20z m446 -11 c20 -12 33 -25 30 -31 -3 -5 0 -9 7 -7 26 3 37 -1 43 -17 4
-11 2 -15 -6 -11 -7 2 -19 -2 -26 -9 -14 -15 -10 -17 26 -14 25 2 29 -12 7
-30 -13 -11 -22 -6 -59 31 -23 24 -41 50 -39 56 3 7 -7 18 -21 24 -14 7 -26
16 -26 21 0 14 28 9 64 -13z m-329 -89 c3 -6 -1 -7 -9 -4 -18 7 -21 14 -7 14
6 0 13 -4 16 -10z m455 -10 c0 -5 -4 -10 -10 -10 -5 0 -10 5 -10 10 0 6 5 10
10 10 6 0 10 -4 10 -10z m-1622 -44 c-10 -7 -15 -16 -11 -19 3 -4 1 -7 -5 -7
-18 0 -14 18 6 29 24 15 30 13 10 -3z m-46 -18 c-9 -9 -15 -9 -24 0 -9 9 -7
12 12 12 19 0 21 -3 12 -12z m96 3 c10 -6 7 -10 -12 -13 -25 -5 -33 1 -19 15
8 9 15 9 31 -2z m1562 -53 c0 -12 -10 -9 -26 6 -20 21 -17 28 6 14 11 -7 20
-16 20 -20z m-1462 10 c7 -7 12 -8 12 -2 0 6 16 8 35 6 43 -5 46 -22 4 -22
-21 0 -28 -4 -23 -12 6 -10 4 -10 -7 0 -16 14 -33 16 -24 2 10 -17 -42 -11
-56 6 -10 13 -10 17 2 25 20 12 43 11 57 -3z m1602 -33 c0 -5 -5 -3 -10 5 -5
8 -10 20 -10 25 0 6 5 3 10 -5 5 -8 10 -19 10 -25z m-1680 10 c0 -8 -7 -15
-16 -15 -14 0 -14 3 -4 15 7 8 14 15 16 15 2 0 4 -7 4 -15z m1600 -20 c39 -28
29 -32 -24 -10 -20 9 -34 20 -31 25 9 15 18 12 55 -15z m-1062 -139 c35 -2 65
-6 68 -9 8 -8 -61 -44 -120 -63 -31 -10 -56 -21 -56 -26 0 -4 -7 -8 -15 -8 -8
0 -15 4 -15 8 0 5 -20 9 -44 9 -39 0 -76 18 -76 38 0 3 15 21 33 39 33 33 34
33 98 24 35 -5 92 -10 127 -12z m-215 -111 c32 -4 57 -12 57 -17 0 -6 -7 -7
-16 -4 -8 3 -25 -1 -38 -9 -12 -8 -40 -16 -63 -18 -22 -2 -45 -7 -51 -11 -12
-7 -42 2 -42 13 0 4 10 7 23 7 13 -1 21 4 19 13 -3 16 28 42 44 37 6 -2 36 -7
67 -11z"/>
<path d="M320 4420 c-9 -6 -10 -10 -3 -10 6 0 15 5 18 10 8 12 4 12 -15 0z"/>
<path d="M3842 4410 c0 -8 4 -26 8 -40 6 -20 8 -21 8 -5 0 11 -3 29 -8 40 -5
12 -8 14 -8 5z"/>
<path d="M3860 4324 c0 -8 5 -12 10 -9 6 4 8 11 5 16 -9 14 -15 11 -15 -7z"/>
<path d="M2775 4293 c10 -15 25 -37 34 -48 10 -11 26 -37 36 -57 38 -74 49
-29 13 49 -13 27 -23 49 -23 50 -1 1 -18 10 -40 19 l-38 16 18 -29z"/>
<path d="M3963 4290 c4 -14 7 -28 7 -32 0 -5 6 -8 14 -8 18 0 10 34 -12 52
-13 11 -15 10 -9 -12z"/>
<path d="M284 4186 c-3 -8 -4 -25 -2 -38 3 -21 4 -20 15 9 12 32 -1 60 -13 29z"/>
<path d="M310 4001 c-12 -24 -13 -34 -1 -27 9 6 22 46 15 46 -2 0 -8 -9 -14
-19z"/>
<path d="M4395 3650 c28 -12 47 -12 40 0 -3 6 -18 10 -33 9 -24 0 -25 -1 -7
-9z"/>
<path d="M4100 3585 c-11 -13 -8 -15 20 -15 21 0 30 4 28 13 -7 18 -33 20 -48
2z"/>
<path d="M4265 3580 c-3 -5 -2 -10 4 -10 5 0 13 5 16 10 3 6 2 10 -4 10 -5 0
-13 -4 -16 -10z"/>
<path d="M1209 3565 c-4 -15 -7 -23 -18 -50 -18 -43 -17 -108 2 -136 l17 -23
1 29 c1 53 6 109 14 148 5 25 4 37 -4 37 -6 0 -12 -2 -12 -5z"/>
<path d="M4035 3460 c3 -5 14 -10 23 -10 15 0 15 2 2 10 -20 13 -33 13 -25 0z"/>
<path d="M3966 3445 c-3 -10 1 -15 13 -15 29 0 52 11 45 21 -9 15 -51 10 -58
-6z"/>
<path d="M4310 3348 c0 -14 -56 -104 -84 -135 -10 -13 -15 -23 -9 -23 10 0 43
32 43 43 0 3 13 20 29 38 28 30 47 89 29 89 -4 0 -8 -5 -8 -12z"/>
<path d="M4041 3321 c-8 -5 -9 -11 -3 -15 5 -3 12 1 16 9 6 17 6 18 -13 6z"/>
<path d="M4010 3290 c0 -5 5 -10 10 -10 6 0 10 5 10 10 0 6 -4 10 -10 10 -5 0
-10 -4 -10 -10z"/>
<path d="M4115 3250 c-3 -5 -1 -10 4 -10 6 0 11 5 11 10 0 6 -2 10 -4 10 -3 0
-8 -4 -11 -10z"/>
<path d="M1820 3216 c0 -8 10 -16 23 -18 22 -3 22 -5 25 -185 l2 -183 -25 0
c-16 0 -25 -6 -25 -15 0 -12 14 -15 65 -15 51 0 65 3 65 15 0 9 -9 15 -25 15
-24 0 -25 2 -25 75 l0 75 76 0 c88 0 125 17 149 66 21 45 19 86 -8 125 -30 45
-71 58 -194 58 -83 1 -103 -2 -103 -13z m212 -26 c46 -13 68 -43 68 -93 0 -27
-7 -45 -25 -62 -21 -22 -33 -25 -100 -25 l-75 0 0 95 0 95 48 0 c26 0 64 -5
84 -10z"/>
<path d="M4059 3181 c-13 -11 -19 -20 -14 -20 14 0 50 28 43 34 -3 3 -16 -3
-29 -14z"/>
<path d="M2200 3106 c0 -8 10 -16 23 -18 21 -3 22 -7 25 -130 l3 -128 -26 0
c-16 0 -25 -6 -25 -15 0 -11 11 -15 40 -15 l40 0 81 123 c45 67 83 124 85 126
2 2 4 -46 4 -107 0 -106 -1 -111 -22 -114 -12 -2 -23 -9 -26 -15 -3 -10 15
-13 68 -13 53 0 71 3 68 13 -3 6 -14 13 -26 15 -21 3 -22 8 -22 133 l0 129 26
0 c42 0 22 25 -23 28 l-40 3 -86 -133 -87 -133 0 118 0 117 25 0 c16 0 25 6
25 15 0 12 -14 15 -65 15 -50 0 -65 -3 -65 -14z"/>
<path d="M2600 3105 c0 -9 9 -15 25 -15 l25 0 0 -130 0 -130 -25 0 c-16 0 -25
-6 -25 -15 0 -12 14 -15 65 -15 51 0 65 3 65 15 0 9 -9 15 -25 15 -24 0 -25 3
-25 55 l0 55 85 0 85 0 0 -55 c0 -48 -2 -55 -20 -55 -11 0 -20 -7 -20 -15 0
-12 14 -15 66 -15 48 0 65 3 62 13 -3 6 -14 13 -26 15 -21 3 -22 8 -22 133 l0
129 25 0 c16 0 25 6 25 15 0 12 -14 15 -65 15 -51 0 -65 -3 -65 -15 0 -8 9
-15 20 -15 18 0 20 -7 20 -55 l0 -55 -86 0 -85 0 3 53 c3 45 6 52 26 55 12 2
22 10 22 18 0 11 -15 14 -65 14 -51 0 -65 -3 -65 -15z"/>
<path d="M3053 3105 c-29 -12 -33 -19 -33 -50 0 -39 22 -46 28 -9 5 29 32 44
78 44 52 0 81 -23 90 -72 l6 -38 -56 0 c-63 0 -132 -24 -146 -51 -13 -23 -13
-75 0 -99 23 -43 136 -46 170 -5 17 21 30 19 30 -5 0 -16 7 -20 35 -20 38 0
48 19 15 27 -19 5 -20 14 -20 120 0 113 0 115 -29 144 -25 25 -37 29 -83 29
-29 -1 -68 -7 -85 -15z m167 -186 c0 -20 -10 -40 -29 -60 -65 -65 -193 -16
-138 53 21 27 51 37 110 38 l57 0 0 -31z"/>
<path d="M1170 2725 c0 -8 9 -15 20 -15 18 0 20 -7 20 -57 -1 -143 -46 -299
-90 -310 -17 -5 -20 -14 -20 -69 0 -57 2 -64 20 -64 17 0 20 7 20 50 l0 50
160 0 160 0 0 -50 c0 -38 4 -50 15 -50 12 0 15 14 15 65 0 58 -2 65 -20 65
-19 0 -20 7 -20 185 l0 185 26 0 c16 0 24 5 22 13 -4 9 -48 13 -166 15 -140 2
-162 0 -162 -13z m240 -200 l0 -185 -120 0 -119 0 19 33 c25 43 50 140 50 198
0 25 3 67 6 93 l7 46 78 0 79 0 0 -185z"/>
<path d="M1634 2611 c-42 -26 -64 -77 -64 -149 0 -71 26 -118 83 -145 44 -22
104 -16 139 13 29 23 16 38 -16 20 -37 -19 -103 -16 -128 6 -22 20 -48 73 -48
99 0 13 18 15 115 15 128 0 125 -2 105 72 -22 78 -114 113 -186 69z m111 -17
c18 -7 45 -54 45 -79 0 -12 -15 -15 -90 -15 -84 0 -90 1 -90 21 0 31 53 79 88
79 17 0 38 -3 47 -6z"/>
<path d="M1890 2616 c0 -8 10 -16 23 -18 21 -3 22 -7 25 -130 l3 -128 -26 0
c-16 0 -25 -6 -25 -15 0 -12 14 -15 65 -15 51 0 65 3 65 15 0 9 -9 15 -25 15
-24 0 -25 3 -25 55 l0 55 85 0 85 0 0 -54 c0 -48 -2 -55 -22 -58 -12 -2 -23
-9 -26 -15 -3 -10 15 -13 68 -13 53 0 71 3 68 13 -3 6 -14 13 -26 15 -21 3
-22 8 -22 132 0 122 1 129 20 132 12 2 21 8 20 13 0 15 -122 13 -127 -2 -3 -8
5 -13 21 -13 25 0 26 -3 26 -55 l0 -55 -85 0 -85 0 0 55 c0 52 1 55 25 55 16
0 25 6 25 15 0 12 -14 15 -65 15 -50 0 -65 -3 -65 -14z"/>
<path d="M2290 2616 c0 -8 10 -16 23 -18 21 -3 22 -7 25 -130 l3 -128 -26 0
c-16 0 -25 -6 -25 -15 0 -11 11 -15 40 -15 l40 0 81 123 c45 67 83 124 85 126
2 2 4 -46 4 -107 0 -106 -1 -111 -22 -114 -12 -2 -23 -9 -26 -15 -3 -10 15
-13 68 -13 53 0 71 3 68 13 -3 6 -14 13 -26 15 -21 3 -22 8 -22 133 l0 129 26
0 c42 0 22 25 -23 28 l-40 3 -86 -133 -87 -133 0 118 0 117 25 0 c16 0 25 6
25 15 0 12 -14 15 -65 15 -50 0 -65 -3 -65 -14z"/>
<path d="M2754 2611 c-64 -39 -85 -184 -36 -250 28 -39 86 -64 128 -56 61 11
137 105 85 105 -13 0 -21 -8 -23 -22 -5 -35 -64 -60 -111 -47 -53 14 -70 52
-65 142 3 61 7 72 31 93 54 46 147 23 147 -37 0 -19 5 -29 15 -29 11 0 15 11
15 40 0 35 -5 43 -32 60 -43 26 -113 26 -154 1z"/>
<path d="M3069 2603 c-58 -49 -75 -133 -43 -213 22 -55 65 -84 126 -84 57 0
94 23 120 75 38 74 10 202 -51 233 -49 26 -114 21 -152 -11z m132 -13 c62 -34
72 -172 16 -228 -28 -28 -95 -34 -122 -12 -61 51 -59 203 2 239 23 13 79 14
104 1z"/>
<path d="M3350 2616 c0 -8 10 -16 23 -18 21 -3 22 -7 25 -130 l3 -128 -26 0
c-16 0 -25 -6 -25 -16 0 -14 16 -15 126 -12 124 3 126 3 150 31 32 37 31 72
-3 105 l-28 27 24 23 c18 19 22 30 17 54 -3 17 -11 37 -17 44 -18 22 -79 34
-176 34 -74 0 -93 -3 -93 -14z m215 -30 c27 -12 35 -21 35 -40 0 -43 -24 -56
-101 -56 l-69 0 0 55 0 55 50 0 c28 0 66 -7 85 -14z m23 -145 c15 -8 22 -21
22 -41 0 -43 -31 -60 -112 -60 l-68 0 0 53 c0 30 3 57 8 61 10 11 124 1 150
-13z"/>
<path d="M3763 2615 c-28 -12 -33 -19 -33 -50 0 -24 4 -35 15 -35 9 0 15 9 15
25 0 30 30 45 90 45 46 0 80 -35 80 -81 0 -28 -1 -29 -54 -29 -98 0 -156 -37
-156 -100 0 -85 105 -116 180 -53 l30 25 0 -26 c0 -23 4 -26 35 -26 39 0 46
14 15 30 -18 10 -20 21 -20 121 0 109 0 111 -29 140 -25 25 -37 29 -83 29 -29
-1 -68 -7 -85 -15z m167 -189 c0 -49 -46 -86 -106 -86 -34 0 -47 5 -58 23 -35
53 12 96 107 97 l57 0 0 -34z"/>
<path d="M414 2546 c-3 -19 -3 -49 1 -66 5 -23 2 -36 -11 -51 -17 -19 -19 -19
-25 -2 -4 12 -18 -20 -42 -97 -49 -160 -57 -200 -57 -272 1 -58 30 -174 42
-163 3 3 4 -9 4 -27 -1 -23 3 -32 12 -30 8 1 12 -2 10 -8 -2 -7 -7 -11 -12
-10 -5 1 -13 -5 -18 -14 -11 -20 16 -59 54 -75 14 -7 31 -25 36 -40 6 -16 21
-38 34 -50 21 -21 22 -23 6 -32 -10 -6 -18 -14 -18 -19 0 -12 123 -50 161 -50
17 0 32 -6 35 -15 4 -8 12 -15 19 -15 8 0 41 -19 76 -42 34 -24 77 -54 97 -67
105 -70 392 -333 392 -358 0 -9 8 -22 17 -29 16 -12 16 -12 -4 -7 -13 3 -23
10 -23 15 0 5 -5 6 -10 3 -6 -4 -22 0 -35 9 -13 9 -37 16 -52 16 -15 0 -46 9
-68 19 -46 21 -162 121 -186 161 -9 15 -31 32 -48 40 -17 7 -31 16 -31 20 0
12 -96 64 -170 92 -77 29 -167 48 -234 48 -46 0 -114 -23 -127 -43 -4 -5 -11
-7 -17 -3 -20 12 -20 -23 0 -41 11 -10 27 -31 35 -48 20 -39 61 -76 84 -78 24
-2 25 -17 2 -17 -15 0 -16 -2 -3 -10 8 -5 11 -12 7 -16 -3 -4 -12 -2 -19 3
-20 16 -88 26 -88 13 0 -28 137 -55 239 -46 60 6 94 4 129 -7 26 -8 84 -25
129 -38 46 -13 83 -27 83 -30 0 -4 -19 -9 -42 -12 -24 -3 -52 -8 -63 -11 -105
-28 -157 -37 -198 -33 -31 2 -46 0 -44 -7 2 -7 40 -12 91 -14 71 -2 100 2 159
22 93 31 188 40 247 22 44 -13 44 -13 20 -26 -14 -7 -27 -13 -30 -12 -8 2 -54
-10 -65 -18 -17 -11 -77 -11 -91 1 -12 10 -13 9 -8 -5 3 -9 1 -16 -5 -16 -6 0
-11 -7 -11 -15 0 -19 -2 -19 100 6 180 44 197 47 208 30 10 -14 11 -14 6 2 -6
16 -2 17 37 11 24 -4 50 -11 57 -17 6 -5 12 -6 12 -2 0 4 7 1 17 -6 9 -8 25
-14 36 -14 30 0 142 -168 166 -248 5 -17 18 -57 29 -87 16 -43 52 -215 52
-246 0 -15 -161 154 -172 180 -9 22 -13 25 -17 13 -5 -14 -10 -14 -41 2 -19
10 -53 28 -74 41 -22 14 -36 19 -32 12 10 -17 -16 -15 -40 3 -10 8 -28 15 -40
15 -26 0 -114 46 -131 68 -10 14 -13 15 -14 2 -1 -8 -1 -21 0 -27 2 -16 -4
-16 -49 -3 -19 6 -48 13 -65 16 -16 3 -32 9 -35 14 -3 5 -17 12 -33 15 -15 4
-25 11 -22 15 6 10 -31 43 -45 38 -6 -2 -3 -12 10 -25 11 -12 20 -24 20 -27 0
-9 -64 7 -87 21 -11 8 -24 10 -27 5 -7 -12 40 -37 108 -57 40 -12 60 -23 63
-36 3 -10 12 -19 20 -19 13 0 13 3 3 15 -8 9 -9 15 -2 15 6 0 14 -4 17 -10 3
-5 28 -10 55 -10 27 0 59 -4 72 -9 13 -5 43 -15 68 -22 l45 -14 -37 -3 c-70
-6 -39 -22 40 -20 59 1 87 -3 121 -19 l44 -20 -49 -7 c-66 -10 -115 -26 -109
-36 3 -5 20 -6 38 -3 85 15 128 14 172 -2 71 -28 74 -41 13 -48 -59 -6 -185
-44 -194 -58 -7 -12 -9 -13 86 21 97 34 117 36 166 15 36 -15 114 -82 114 -98
0 -5 17 -29 39 -53 41 -46 51 -91 51 -220 0 -41 4 -54 15 -54 17 0 19 19 16
120 -1 56 2 68 22 90 13 14 27 40 30 59 11 53 42 89 72 83 15 -2 25 0 25 7 0
7 -4 10 -9 6 -5 -3 -12 -1 -16 5 -3 5 3 10 14 10 12 0 21 5 21 11 0 5 -4 8 -9
4 -5 -3 -12 -1 -16 5 -3 5 1 10 9 10 11 0 16 9 16 28 0 15 5 33 11 39 13 13 4
63 -12 63 -6 0 -8 -3 -5 -8 2 -4 -2 -16 -10 -27 -8 -10 -14 -13 -14 -6 0 7 -4
10 -9 6 -5 -3 -12 -1 -16 5 -3 5 3 10 14 10 26 0 28 17 4 23 -17 4 -17 5 0 6
10 1 17 9 17 20 0 20 -14 22 -40 6 -9 -5 -8 0 4 13 11 12 22 20 24 17 7 -7 42
46 42 63 0 6 -11 12 -25 12 -22 0 -25 4 -25 33 0 37 45 114 72 123 10 3 18 12
18 20 0 8 4 14 9 14 5 0 11 7 15 15 5 13 2 14 -16 4 -17 -9 -20 -9 -15 2 39
91 96 243 97 261 6 66 -11 64 -34 -5 -31 -91 -69 -177 -78 -177 -8 0 -12 47
-10 127 1 45 -11 56 -27 25 -12 -23 -16 -135 -6 -184 7 -39 -16 -104 -56 -156
l-18 -24 -6 29 c-4 15 -8 34 -11 41 -2 7 1 10 6 7 15 -9 12 5 -5 22 -8 8 -13
18 -11 21 2 4 7 25 10 47 13 85 16 94 34 88 14 -6 15 -4 5 8 -7 9 -9 20 -5 25
4 6 -10 -7 -30 -29 -20 -21 -46 -58 -58 -83 -12 -24 -25 -44 -30 -44 -11 0
-62 -129 -55 -139 2 -5 -1 -26 -9 -47 -12 -33 -15 -36 -21 -19 -16 46 -71 153
-98 193 -16 24 -26 49 -23 57 3 8 1 17 -4 20 -5 3 -8 29 -6 58 2 29 5 58 5 65
1 6 5 12 10 12 5 0 8 -17 6 -37 l-3 -38 14 27 c16 31 9 58 -15 59 -11 0 -9 3
7 9 12 5 22 15 21 22 0 10 -2 10 -6 1 -2 -7 -8 -13 -13 -13 -14 0 -2 84 20
134 26 61 25 62 -6 41 l-27 -17 5 66 c4 51 12 74 32 100 14 19 26 37 26 41 0
3 10 19 22 35 12 16 19 33 15 36 -4 4 -10 -2 -14 -13 -9 -23 -82 -107 -88
-101 -11 11 -13 131 -3 155 6 16 11 31 10 35 -1 3 5 12 13 18 8 7 15 21 15 32
0 11 7 26 15 34 8 9 15 24 15 35 0 10 5 19 10 19 6 0 10 11 10 25 0 39 -16 30
-35 -21 -9 -25 -29 -66 -43 -92 l-27 -47 -7 40 c-13 76 -9 113 22 172 16 32
30 65 31 73 4 39 -2 50 -25 50 -14 0 -28 5 -32 11 -4 8 0 9 15 4 16 -5 21 -2
21 12 -1 23 -25 55 -34 46 -4 -4 -4 0 -1 9 7 17 -34 53 -46 40 -19 -20 -121
-270 -134 -329 -35 -153 -39 -207 -25 -284 14 -79 46 -168 67 -184 15 -12 46
-85 36 -85 -4 0 2 -6 13 -14 10 -8 16 -17 12 -21 -3 -4 5 -31 18 -61 43 -98
29 -94 -93 27 -150 146 -201 191 -293 257 -41 29 -86 68 -100 87 -14 19 -28
35 -32 35 -4 0 -27 14 -52 30 -33 22 -48 41 -55 67 -13 45 2 119 35 181 13 25
24 51 24 59 0 8 4 12 8 9 9 -5 5 104 -4 113 -11 12 -26 -22 -34 -78 -5 -35
-23 -91 -39 -126 -17 -35 -31 -73 -31 -85 0 -35 -24 -17 -35 26 -5 21 -12 41
-16 44 -4 3 -10 24 -14 47 -6 41 25 186 46 207 14 15 11 36 -6 36 -8 0 -15 -5
-15 -12 0 -17 -40 -97 -52 -104 -7 -4 -8 5 -3 25 4 20 2 37 -5 47 -15 17 -9
202 7 213 10 7 60 117 64 141 3 21 -12 70 -22 70 -4 0 -11 -16 -15 -35 -7 -38
-27 -46 -43 -16 -9 16 -8 18 9 14 11 -3 20 0 20 6 0 6 -6 11 -14 11 -23 0 -29
20 -15 47 12 22 11 26 -9 41 -12 10 -25 32 -28 50 -8 42 -21 41 -30 -2z m15
-179 c-1 -17 -2 -18 -6 -4 -2 9 -9 17 -14 17 -6 0 -7 5 -4 10 10 16 25 1 24
-23z m-16 -37 c3 -11 2 -20 -3 -20 -4 0 -10 9 -13 20 -3 11 -2 20 3 20 4 0 10
-9 13 -20z m73 -50 l-15 -45 2 45 c3 48 19 88 24 60 2 -8 -3 -35 -11 -60z
m831 -382 c-3 -7 -5 -2 -5 12 0 14 2 19 5 13 2 -7 2 -19 0 -25z m-900 -68 c1
-11 -4 -20 -13 -20 -17 0 -19 26 -1 33 6 3 12 6 12 6 1 1 1 -8 2 -19z m23 -34
c0 -3 -4 -8 -10 -11 -5 -3 -10 -1 -10 4 0 6 5 11 10 11 6 0 10 -2 10 -4z m42
-50 c9 -17 9 -17 -16 -1 -30 20 -32 24 -10 21 9 -1 21 -10 26 -20z m792 -77
c7 -45 6 -46 -17 -44 -19 2 -24 -1 -20 -15 3 -10 14 -28 25 -40 11 -12 24 -38
29 -58 9 -40 12 -112 4 -112 -6 0 -51 46 -69 72 -9 12 -16 41 -16 65 0 23 -4
45 -10 48 -14 9 -12 25 3 25 8 0 20 11 27 25 11 20 11 27 0 40 -7 8 -10 18 -7
22 4 3 -1 12 -11 19 -15 12 -15 12 6 7 14 -3 22 -1 22 8 0 32 28 -19 34 -62z
m-824 21 c0 -5 -7 -10 -15 -10 -8 0 -15 5 -15 10 0 6 7 10 15 10 8 0 15 -4 15
-10z m66 -36 c3 -13 10 -22 14 -19 10 6 44 -44 36 -52 -3 -4 -14 1 -24 10 -10
10 -22 14 -25 10 -4 -3 -7 5 -7 18 0 19 -2 21 -10 9 -8 -13 -11 -12 -24 5 -26
34 -19 57 15 48 10 -3 22 -16 25 -29z m681 -236 c-3 -8 -6 -5 -6 6 -1 11 2 17
5 13 3 -3 4 -12 1 -19z m49 -57 c-3 -5 1 -14 9 -21 12 -10 15 -10 15 1 0 17
16 0 24 -26 5 -16 1 -21 -14 -22 -11 -1 -20 3 -20 8 0 6 -7 17 -15 25 -17 18
-20 44 -4 44 5 0 8 -4 5 -9z m-865 -34 c20 20 54 0 92 -54 21 -31 35 -58 32
-62 -4 -3 -11 2 -16 12 -6 9 -15 17 -20 17 -16 0 -83 33 -91 44 -4 6 -4 14 -2
18 3 4 -1 5 -9 2 -8 -3 -18 6 -26 23 l-13 28 21 -19 c15 -14 25 -16 32 -9z
m265 -64 c31 -43 68 -89 81 -102 13 -12 22 -25 19 -28 -9 -10 -100 18 -121 36
-11 10 -33 23 -50 28 -16 5 -30 14 -30 19 0 5 -13 21 -28 36 -15 15 -27 34
-27 42 0 8 -3 21 -6 30 -5 13 3 16 50 16 l56 0 56 -77z m69 37 c4 -6 11 -8 16
-5 5 4 9 -1 9 -9 0 -9 3 -15 8 -14 18 6 216 -187 207 -202 -4 -7 -11 -8 -18
-1 -7 5 -30 13 -52 17 -51 9 -111 50 -156 106 -57 71 -69 94 -56 107 14 14 34
14 42 1z m-268 -105 c18 -4 36 -11 39 -17 5 -7 -2 -9 -20 -6 -14 3 -26 2 -26
-2 0 -5 -9 -6 -20 -3 -11 3 -20 9 -20 13 0 5 -10 6 -22 2 -21 -5 -22 -4 -9 11
8 10 21 15 30 13 9 -2 31 -7 48 -11z m841 -20 c14 -30 16 -75 4 -75 -12 0 -32
47 -32 75 0 32 14 32 28 0z m22 -176 c0 -6 -4 -7 -10 -4 -5 3 -10 11 -10 16 0
6 5 7 10 4 6 -3 10 -11 10 -16z m287 -175 c3 -16 7 -36 8 -44 1 -8 6 -23 10
-33 4 -11 3 -23 -4 -30 -6 -6 -11 -7 -11 -1 0 5 -9 10 -20 10 -11 0 -20 -4
-20 -8 0 -4 7 -8 15 -8 12 0 13 -3 3 -19 -19 -30 -28 -15 -28 45 0 37 5 61 16
71 11 11 12 19 5 26 -6 6 -11 20 -11 31 0 18 2 19 15 5 9 -8 18 -29 22 -45z
m12 -148 c7 -8 8 -17 3 -19 -4 -3 -13 3 -20 14 -14 22 0 26 17 5z m76 -24 c-3
-3 -11 0 -18 7 -9 10 -8 11 6 5 10 -3 15 -9 12 -12z m-155 -48 c0 -14 -4 -23
-9 -19 -11 6 -10 45 1 45 4 0 8 -12 8 -26z m11 -51 c0 -10 2 -28 3 -40 2 -13
-1 -23 -6 -23 -4 0 -8 9 -8 19 0 11 -4 23 -10 26 -5 3 -10 13 -10 21 0 20 30
17 31 -3z"/>
<path d="M602 2175 c-13 -54 -21 -100 -17 -103 9 -9 34 30 51 83 14 43 14 55
3 83 l-14 33 -23 -96z"/>
<path d="M4146 2212 c-8 -14 13 -29 54 -37 19 -3 65 -18 101 -32 56 -21 66
-28 61 -45 -2 -11 -8 -15 -11 -10 -9 14 -151 10 -151 -5 0 -16 60 -27 116 -20
24 2 44 1 44 -3 0 -4 17 -2 37 5 43 15 43 15 108 -14 71 -32 84 -56 35 -63
-17 -3 -30 0 -30 6 0 6 -7 3 -14 -6 -9 -12 -23 -17 -42 -14 -51 6 -84 18 -78
27 3 5 0 9 -5 9 -6 0 -11 -4 -11 -8 0 -5 -7 -9 -15 -9 -8 0 -15 6 -15 13 0 8
-6 11 -14 8 -7 -3 -21 2 -30 12 -9 9 -19 14 -22 11 -8 -7 73 -71 136 -106 101
-57 154 -78 213 -84 52 -5 78 -12 66 -19 -2 -2 -31 -16 -64 -32 -33 -16 -89
-50 -125 -74 -36 -25 -66 -39 -68 -33 -2 6 -8 11 -13 11 -6 0 -7 -4 -4 -10 7
-11 7 -11 -55 -12 -68 0 -80 1 -80 11 0 4 16 7 35 5 19 -1 37 1 40 6 2 4 -5 8
-18 8 -12 0 -26 1 -32 2 -23 5 -35 -1 -36 -17 0 -11 -3 -13 -6 -6 -3 10 -10
10 -26 1 -15 -8 -22 -8 -25 0 -2 6 -10 8 -18 5 -16 -6 -90 14 -112 30 -21 16
-26 -1 -7 -23 18 -19 17 -20 -6 -21 -65 -4 -108 0 -130 12 -13 7 -27 12 -31
11 -5 -1 -8 2 -8 8 0 5 -17 17 -37 27 -21 9 -41 22 -45 27 -5 7 -8 7 -8 -1 0
-7 15 -19 34 -28 18 -9 45 -29 61 -45 l27 -28 -54 -9 c-30 -5 -68 -5 -88 0
-19 4 -42 9 -50 9 -8 1 -21 7 -28 15 -7 7 -19 13 -26 13 -6 0 -29 9 -51 20
-40 20 -101 28 -90 11 3 -5 22 -15 43 -22 20 -6 62 -23 92 -37 l55 -26 -72
-14 -72 -14 -65 31 c-72 34 -113 39 -122 16 -4 -8 -16 -15 -28 -15 -24 0 -96
-55 -96 -74 0 -7 60 -35 133 -64 147 -56 333 -94 423 -86 77 7 214 49 214 66
0 5 5 6 10 3 6 -3 13 1 16 10 8 19 81 58 95 50 5 -4 8 -1 7 6 -2 7 8 16 22 19
14 3 47 16 73 29 26 12 53 21 59 19 6 -2 -24 -42 -68 -89 -81 -86 -205 -239
-240 -295 -46 -75 -77 -117 -105 -142 -16 -15 -40 -47 -53 -72 -35 -66 -66
-85 -136 -85 -45 1 -73 8 -127 35 -58 29 -79 34 -121 32 -37 -2 -52 -7 -52
-17 0 -15 4 -16 107 -33 34 -6 77 -17 95 -25 18 -9 50 -21 71 -27 20 -6 37
-13 37 -16 0 -8 -60 -34 -80 -34 -12 0 -19 -4 -16 -9 6 -9 -75 -22 -109 -17
-35 5 -79 17 -95 25 -9 5 -30 12 -48 16 -25 5 -32 3 -32 -9 0 -9 8 -16 19 -16
21 0 101 -40 101 -50 0 -4 -11 -5 -25 -2 -14 2 -37 -1 -53 -7 -29 -12 -137
-18 -162 -9 -8 3 -37 13 -65 23 -105 37 -145 45 -166 32 -27 -17 -24 -24 12
-32 24 -5 30 -11 26 -26 -3 -10 0 -20 7 -23 6 -2 1 -3 -11 -3 -16 1 -23 8 -23
21 0 20 -1 20 -15 -1 -11 -16 -23 -21 -45 -18 -22 3 -37 -3 -55 -21 -13 -13
-36 -24 -50 -24 -14 0 -24 -4 -21 -9 10 -15 63 -20 101 -10 31 9 40 8 57 -7
18 -17 18 -19 1 -25 -13 -5 -6 -9 27 -18 25 -6 59 -15 75 -20 72 -23 195 -44
250 -42 62 1 156 25 189 47 10 7 24 10 31 8 7 -3 15 2 18 10 9 23 27 20 27 -4
0 -11 6 -20 13 -20 16 0 67 52 67 68 0 6 13 18 28 26 16 8 39 26 52 39 19 20
27 23 41 14 10 -6 21 -8 25 -5 8 9 33 126 34 159 0 15 6 29 14 32 7 3 16 18
19 34 3 15 21 50 39 78 18 27 43 67 56 89 12 22 29 47 37 56 7 8 27 34 42 57
47 70 244 293 258 293 8 0 19 8 25 18 16 25 3 -33 -17 -75 -8 -18 -12 -36 -9
-41 9 -15 -20 -96 -52 -142 -35 -51 -101 -125 -118 -131 -6 -2 -26 -29 -45
-59 -89 -140 -120 -239 -122 -386 -2 -107 -1 -112 26 -147 15 -21 25 -42 22
-47 -13 -20 19 -9 54 20 73 60 101 85 101 95 0 14 38 36 44 26 3 -4 1 -23 -4
-42 -6 -19 -10 -43 -10 -54 0 -37 30 7 38 56 7 46 7 158 0 221 -4 33 7 100 44
255 l12 52 23 -77 c13 -42 26 -86 28 -97 1 -11 8 -33 14 -48 6 -16 11 -53 11
-83 0 -54 14 -74 22 -31 8 42 -11 186 -30 224 -37 74 -56 190 -40 251 9 38 12
42 22 26 5 -11 11 -23 12 -29 5 -24 24 -65 31 -65 11 0 9 -72 -2 -89 -5 -10
-4 -12 4 -7 6 4 14 0 17 -8 3 -9 10 -16 15 -16 15 0 10 40 -12 115 -60 201
-65 269 -27 327 11 17 13 29 6 36 -11 11 94 100 167 141 69 40 201 90 290 111
115 27 127 26 95 -3 -14 -13 -47 -50 -74 -81 -27 -32 -60 -62 -73 -67 -13 -5
-23 -14 -23 -20 0 -6 6 -9 13 -6 15 6 -27 -88 -44 -98 -6 -4 -7 -19 -4 -35 4
-16 1 -38 -5 -50 -6 -11 -13 -34 -15 -51 -4 -36 -41 -109 -62 -124 -14 -11
-14 -13 1 -18 10 -4 23 -4 28 -1 8 5 9 -7 4 -37 -4 -24 -10 -58 -13 -76 -3
-18 -11 -38 -19 -44 -8 -6 -14 -20 -14 -30 0 -11 -6 -19 -13 -19 -14 0 -41
-39 -33 -48 3 -3 17 5 31 18 l25 23 0 -22 c0 -12 -7 -38 -15 -58 -18 -42 -18
-43 -6 -43 12 0 34 58 57 150 10 41 21 77 24 80 4 3 6 25 6 50 -1 51 23 170
34 170 4 0 7 -8 7 -17 0 -50 4 -67 11 -55 5 7 7 47 4 90 -3 59 0 87 13 117
l18 40 8 -40 c14 -67 32 -115 40 -110 8 6 6 40 -4 65 -22 55 -5 172 29 201 12
9 14 6 15 -17 1 -16 5 -40 9 -54 6 -18 7 -11 5 25 -3 54 3 71 46 126 28 36 29
40 28 150 -1 94 -14 207 -18 162 -2 -18 -21 -16 -21 2 0 8 -5 15 -11 15 -5 0
-7 -4 -4 -10 3 -5 1 -10 -4 -10 -6 0 -11 5 -11 10 0 6 -12 10 -26 10 -14 0
-34 5 -45 11 -22 11 -59 4 -59 -12 0 -6 4 -8 9 -5 5 3 15 -2 22 -11 12 -14 11
-15 -9 -9 -17 6 -22 3 -23 -11 0 -10 -3 -13 -6 -5 -2 6 -14 12 -24 12 -11 0
-17 -4 -14 -10 3 -6 -4 -10 -17 -10 -16 0 -19 3 -10 9 10 6 4 13 -21 25 -45
21 -47 21 -47 -9 0 -22 -4 -25 -37 -25 -43 0 -88 24 -131 70 -33 34 -42 37
-42 14 0 -11 -5 -14 -17 -9 -46 19 -217 75 -247 80 -19 4 -36 2 -40 -3z m694
-146 c0 -3 -4 -8 -10 -11 -5 -3 -10 -1 -10 4 0 6 5 11 10 11 6 0 10 -2 10 -4z
m50 -92 c0 -2 -9 -4 -20 -4 -11 0 -20 4 -20 9 0 5 9 7 20 4 11 -3 20 -7 20 -9z
m-257 -23 c-12 -9 -14 -31 -3 -31 6 0 10 6 11 13 0 9 2 9 6 -1 2 -6 9 -10 14
-6 5 3 9 1 9 -4 0 -17 -93 -21 -122 -6 -17 9 -29 10 -33 4 -3 -6 -16 -10 -28
-10 l-22 1 24 19 c13 11 31 20 40 21 9 0 32 6 51 13 23 8 39 9 48 3 7 -6 9
-13 5 -16z m57 19 c0 -4 -7 -13 -15 -20 -14 -12 -16 -10 -14 6 0 4 -5 10 -11
14 -7 4 -1 8 14 8 14 0 26 -4 26 -8z m170 -58 c0 -7 -57 -32 -73 -32 -4 0 -7
6 -7 14 0 10 13 16 38 19 20 2 38 4 40 5 1 1 2 -2 2 -6z m-90 -21 c0 -5 -11
-11 -25 -13 -14 -3 -25 -2 -25 3 0 4 10 10 23 12 12 2 23 5 25 6 1 0 2 -3 2
-8z m-390 -245 c0 -2 -9 -6 -20 -9 -11 -3 -18 -1 -14 4 5 9 34 13 34 5z m-113
-22 c2 -6 -11 -14 -29 -17 -18 -3 -41 -8 -50 -12 -29 -11 -21 13 10 29 30 17
63 17 69 0z m-877 -4 c0 -5 -5 -10 -11 -10 -5 0 -7 5 -4 10 3 6 8 10 11 10 2
0 4 -4 4 -10z m686 -10 c0 -11 -6 -20 -12 -20 -7 0 -15 -7 -18 -16 -3 -8 -10
-12 -16 -9 -5 3 -10 2 -10 -4 0 -6 -7 -8 -17 -4 -13 5 -12 8 8 15 17 7 20 11
11 17 -14 8 -2 23 28 34 24 9 26 8 26 -13z m-116 4 c0 -3 -20 -25 -45 -48 -37
-36 -49 -41 -78 -38 -22 2 -39 -2 -50 -13 -17 -16 -42 -12 -32 6 4 5 -1 9 -10
9 -8 0 -18 7 -22 15 -5 14 -8 14 -29 0 -13 -8 -24 -12 -24 -8 0 5 -4 3 -8 -3
-4 -6 -13 -4 -24 8 -17 17 -15 18 34 33 70 20 76 20 70 -10 -4 -21 -1 -24 14
-18 11 3 27 15 36 26 9 10 34 25 55 33 39 13 113 19 113 8z m355 -323 c3 -5 1
-12 -5 -16 -5 -3 -10 -22 -10 -40 0 -45 -35 -105 -96 -167 -59 -60 -99 -84
-111 -65 -12 19 -10 31 10 49 10 9 16 22 12 28 -3 5 1 13 9 16 9 3 16 10 16
15 0 9 17 31 70 88 14 16 38 44 54 65 30 37 41 43 51 27z m-60 -248 c-3 -21
-17 -59 -31 -85 -13 -26 -24 -54 -24 -63 0 -8 -5 -15 -10 -15 -6 0 -26 -15
-44 -33 -34 -34 -65 -43 -78 -23 -4 6 -8 29 -8 52 0 34 6 45 36 72 20 18 49
40 65 49 16 10 32 25 35 35 3 10 12 18 20 18 8 0 14 7 14 15 0 8 7 15 16 15
13 0 15 -7 9 -37z m-449 -192 c-9 -10 -13 -21 -9 -24 3 -4 -1 -7 -9 -7 -28 0
-28 28 0 50 30 24 44 10 18 -19z m380 -29 c-8 -2 -16 -16 -19 -31 -3 -16 -12
-35 -20 -42 -7 -8 -12 -20 -9 -27 3 -11 -9 -16 -30 -13 -4 0 -5 -6 -2 -13 3
-8 -3 -19 -15 -26 -14 -7 -21 -7 -21 0 0 5 5 10 10 10 7 0 8 13 4 37 -7 35 -4
39 47 84 36 31 56 43 61 36 4 -7 1 -13 -6 -15z m-423 -10 c-2 -6 4 -9 12 -6 8
4 15 1 15 -5 0 -6 -7 -11 -15 -11 -8 0 -15 -4 -15 -10 0 -5 -11 -10 -25 -10
-28 0 -35 20 -7 21 11 0 12 2 4 6 -10 4 -10 8 -1 19 13 16 35 13 32 -4z m472
-44 c-2 -24 -3 -49 -4 -56 -1 -10 -6 -10 -21 -2 -12 7 -18 16 -13 23 4 7 8 17
8 22 2 26 18 64 25 60 4 -2 6 -24 5 -47z m-577 2 c-14 -22 -24 -19 -15 5 4 8
11 15 17 15 6 0 6 -7 -2 -20z m-563 0 c4 -6 10 -8 15 -5 4 3 19 1 32 -5 19 -8
14 -9 -26 -7 -29 1 -51 7 -54 15 -4 14 24 16 33 2z m525 -5 c0 -8 -4 -15 -8
-15 -5 0 -9 7 -9 15 0 8 4 15 9 15 4 0 8 -7 8 -15z m110 -20 c0 -8 -4 -15 -10
-15 -5 0 -10 7 -10 15 0 8 5 15 10 15 6 0 10 -7 10 -15z m-100 -15 c0 -5 -4
-10 -10 -10 -5 0 -10 5 -10 10 0 6 5 10 10 10 6 0 10 -4 10 -10z m-30 -20 c0
-14 -28 -19 -33 -6 -3 6 4 13 14 13 10 1 19 -2 19 -7z m-567 -24 c4 -10 1 -13
-9 -9 -15 6 -19 23 -5 23 5 0 11 -7 14 -14z m1177 4 c0 -5 -5 -10 -11 -10 -5
0 -7 5 -4 10 3 6 8 10 11 10 2 0 4 -4 4 -10z"/>
<path d="M1933 1920 c0 -30 2 -45 4 -32 6 30 53 32 53 2 0 -11 5 -20 10 -20 6
0 10 20 10 44 0 25 -4 48 -10 51 -5 3 -10 -3 -10 -14 0 -31 -47 -29 -53 2 -2
12 -4 -3 -4 -33z"/>
<path d="M2050 1960 c0 -6 7 -24 15 -40 14 -26 13 -30 -3 -39 -15 -9 -15 -10
-1 -11 20 0 32 14 52 63 18 42 7 51 -12 10 l-13 -28 -14 28 c-15 28 -24 34
-24 17z"/>
<path d="M2150 1960 c0 -5 7 -10 15 -10 11 0 15 -11 15 -40 0 -22 5 -40 10
-40 6 0 10 18 10 40 0 22 5 40 10 40 6 0 10 5 10 10 0 6 -16 10 -35 10 -19 0
-35 -4 -35 -10z"/>
<path d="M2260 1920 c0 -27 5 -50 10 -50 6 0 10 9 10 20 0 13 7 20 19 20 23 0
35 28 20 46 -6 8 -22 14 -35 14 -22 0 -24 -4 -24 -50z m50 15 c0 -8 -7 -15
-15 -15 -8 0 -15 7 -15 15 0 8 7 15 15 15 8 0 15 -7 15 -15z"/>
<path d="M2371 1923 c0 -29 3 -53 7 -53 4 0 17 15 27 33 l20 32 3 -32 c5 -52
22 -38 22 17 0 28 -4 50 -9 50 -5 0 -20 -17 -33 -37 l-23 -38 -6 40 c-6 39 -6
39 -8 -12z"/>
<path d="M2498 1964 c-5 -4 -8 -27 -8 -51 l0 -43 39 0 c23 0 41 -5 44 -12 2
-7 3 0 1 16 -2 16 -4 44 -4 63 0 20 -4 32 -10 28 -5 -3 -10 -24 -10 -46 0 -32
-3 -39 -19 -39 -16 0 -20 8 -23 46 -2 25 -6 42 -10 38z"/>
<path d="M2621 1923 c0 -29 3 -53 7 -53 4 0 17 15 27 33 l20 32 3 -32 c5 -52
22 -38 22 17 0 28 -4 50 -9 50 -5 0 -20 -17 -33 -37 l-23 -38 -6 40 c-6 39 -6
39 -8 -12z"/>
<path d="M2756 1954 c-29 -29 -11 -84 27 -84 30 0 47 18 47 50 0 47 -42 66
-74 34z m58 -17 c14 -22 -4 -52 -30 -52 -14 0 -20 8 -22 29 -5 44 29 59 52 23z"/>
<path d="M2885 1928 c-4 -24 -13 -46 -19 -50 -7 -5 -5 -8 5 -8 19 0 29 20 29
56 0 15 6 24 15 24 11 0 15 -11 15 -40 0 -22 5 -40 10 -40 6 0 10 23 10 50 0
49 -1 50 -29 50 -27 0 -30 -4 -36 -42z"/>
<path d="M3002 1958 c-7 -7 -12 -24 -12 -38 0 -31 17 -50 45 -50 28 0 45 19
45 50 0 31 -17 50 -45 50 -12 0 -26 -5 -33 -12z m56 -42 c-2 -23 -8 -31 -23
-31 -15 0 -21 8 -23 29 -4 30 12 48 35 39 9 -4 13 -17 11 -37z"/>
<path d="M3127 1963 c-11 -10 -8 -93 3 -93 6 0 10 18 10 40 0 33 3 40 20 40
11 0 20 5 20 10 0 11 -43 14 -53 3z"/>
<path d="M3983 1754 c30 -16 44 -14 32 5 -3 6 -18 11 -33 11 l-27 -1 28 -15z"/>
<path d="M4730 1655 c-19 -23 -8 -26 20 -5 19 15 21 20 9 20 -9 0 -22 -7 -29
-15z"/>
<path d="M4931 1595 c-2 -16 43 -125 51 -125 5 0 8 3 8 8 -1 13 -58 127 -59
117z"/>
<path d="M4735 1530 c-3 -5 -1 -10 4 -10 6 0 11 5 11 10 0 6 -2 10 -4 10 -3 0
-8 -4 -11 -10z"/>
<path d="M4696 1505 c-3 -8 -1 -15 4 -15 6 0 10 7 10 15 0 8 -2 15 -4 15 -2 0
-6 -7 -10 -15z"/>
<path d="M4592 1408 c-13 -13 -16 -38 -6 -38 8 0 33 32 34 43 0 11 -15 8 -28
-5z"/>
<path d="M1432 1373 c-18 -32 -16 -51 4 -31 9 8 14 24 12 34 -4 18 -5 17 -16
-3z"/>
<path d="M4905 1354 c8 -20 20 -65 26 -101 6 -35 15 -61 19 -56 9 9 -15 137
-32 171 -19 36 -30 25 -13 -14z"/>
<path d="M4796 1321 c-4 -7 -5 -15 -2 -18 9 -9 19 4 14 18 -4 11 -6 11 -12 0z"/>
<path d="M4630 1260 c-9 -6 -10 -10 -3 -10 6 0 15 5 18 10 8 12 4 12 -15 0z"/>
<path d="M4601 1227 c-13 -13 -15 -47 -2 -47 5 0 16 11 24 24 13 20 14 25 3
29 -8 3 -19 0 -25 -6z"/>
<path d="M4830 1170 c0 -5 5 -10 10 -10 6 0 10 5 10 10 0 6 -4 10 -10 10 -5 0
-10 -4 -10 -10z"/>
<path d="M4730 1154 c0 -8 5 -12 10 -9 6 4 8 11 5 16 -9 14 -15 11 -15 -7z"/>
<path d="M4730 1114 c0 -8 5 -12 10 -9 6 3 10 10 10 16 0 5 -4 9 -10 9 -5 0
-10 -7 -10 -16z"/>
<path d="M4846 1087 c-8 -31 -7 -39 3 -33 12 8 21 45 11 51 -4 3 -10 -5 -14
-18z"/>
<path d="M3150 916 l-25 -14 40 -6 c71 -11 130 -23 148 -31 12 -5 17 -3 17 10
0 11 -5 15 -16 11 -8 -3 -13 -2 -10 3 16 25 -117 48 -154 27z"/>
<path d="M826 792 c-3 -5 8 -19 24 -31 28 -20 30 -20 30 -3 0 31 -40 56 -54
34z"/>
<path d="M1030 775 c21 -22 26 -24 28 -10 4 20 4 20 -28 30 l-25 7 25 -27z"/>
<path d="M890 751 c0 -5 5 -13 10 -16 6 -3 10 -2 10 4 0 5 -4 13 -10 16 -5 3
-10 2 -10 -4z"/>
<path d="M1130 670 c0 -5 5 -10 11 -10 5 0 7 5 4 10 -3 6 -8 10 -11 10 -2 0
-4 -4 -4 -10z"/>
<path d="M745 650 c3 -5 10 -10 16 -10 5 0 9 5 9 10 0 6 -7 10 -16 10 -8 0
-12 -4 -9 -10z"/>
<path d="M1286 615 c9 -14 19 -24 21 -21 7 7 -16 46 -28 46 -5 0 -2 -11 7 -25z"/>
<path d="M940 580 c0 -5 5 -10 10 -10 6 0 10 5 10 10 0 6 -4 10 -10 10 -5 0
-10 -4 -10 -10z"/>
<path d="M690 540 c0 -5 12 -10 28 -10 21 0 24 2 12 10 -20 13 -40 13 -40 0z"/>
<path d="M958 466 c-59 -14 -71 -26 -27 -26 19 0 48 9 64 20 33 22 30 23 -37
6z"/>
<path d="M825 440 c-4 -6 6 -10 24 -10 16 0 33 5 36 10 4 6 -6 10 -24 10 -16
0 -33 -4 -36 -10z"/>
</g>
</svg>
